<svg width="50" height="32" viewBox="0 0 50 32" fill="none" xmlns="http://www.w3.org/2000/svg">
<g id="logo">
<path d="M24.3139 2.57166C20.3086 5.63623 17.7165 10.5105 17.7165 16C17.7165 21.4894 20.3086 26.3637 24.3139 29.4283C21.8484 31.0551 18.9068 32 15.748 32C7.05063 32 0 24.8366 0 16C0 7.16344 7.05063 0 15.748 0C18.9068 0 21.8484 0.944895 24.3139 2.57166Z" fill="white"/>
<path d="M25.1968 29.0921C29.245 26.1966 31.8898 21.4121 31.8898 16C31.8898 13.1248 31.1433 10.4268 29.8366 8.09497C29.4523 7.40914 29.0195 6.75499 28.5429 6.13734C28.4774 6.05243 28.4111 5.96821 28.3439 5.88469C27.4341 4.75316 26.375 3.75052 25.1969 2.90788C21.1488 5.80338 18.5039 10.5879 18.5039 16C18.5039 21.4121 21.1488 26.1966 25.1968 29.0921Z" fill="white"/>
<path d="M34.252 0C31.1831 0 28.3193 0.891861 25.8979 2.43439C30.0064 5.4895 32.6772 10.4278 32.6772 16C32.6772 21.5721 30.0064 26.5105 25.8978 29.5656C28.3192 31.1081 31.1831 32 34.252 32C42.9494 32 50 24.8366 50 16C50 7.16344 42.9494 0 34.252 0Z" fill="white"/>
</g>
</svg>
