<svg width="12" height="20" viewBox="0 0 12 20" fill="none" xmlns="http://www.w3.org/2000/svg">
<path d="M10.6146 19.4394H0.733128C0.380038 19.4394 0.09375 19.1689 0.09375 18.8351V9.49521C0.09375 9.16147 0.380038 8.89087 0.733128 8.89087H10.6146C10.9677 8.89087 11.254 9.16147 11.254 9.49521V18.8352C11.254 19.1689 10.9677 19.4395 10.6146 19.4395V19.4394ZM1.37251 18.2307H9.97526V10.0995H1.37251V18.2307Z" fill="black"/>
<path d="M8.79637 10.0995H2.55051C2.19742 10.0995 1.91113 9.82885 1.91113 9.49511V7.11606C1.91113 6.78232 2.19742 6.51172 2.55051 6.51172H8.79637C9.14946 6.51172 9.43574 6.78232 9.43574 7.11606V9.49511C9.43574 9.82885 9.14946 10.0995 8.79637 10.0995ZM3.18989 8.89078H8.15699V7.72039H3.18989V8.89078Z" fill="black"/>
<path d="M7.53831 7.72049H3.80946C3.45632 7.72049 3.17008 7.44994 3.17008 7.11615V0.860197C3.17008 0.526409 3.45632 0.255859 3.80946 0.255859H7.53831C7.89146 0.255859 8.17769 0.526409 8.17769 0.860197V7.11615C8.17769 7.44994 7.89146 7.72049 7.53831 7.72049ZM4.44884 6.51182H6.89894V1.46453H4.44884V6.51182ZM10.6146 12.3426H0.733128C0.380038 12.3426 0.09375 12.072 0.09375 11.7383C0.09375 11.4045 0.380038 11.1339 0.733128 11.1339H10.6146C10.9677 11.1339 11.254 11.4045 11.254 11.7383C11.254 12.072 10.9677 12.3426 10.6146 12.3426Z" fill="black"/>
<path d="M7.53816 3.88177H3.8093C3.45616 3.88177 3.16992 3.61117 3.16992 3.27743C3.16992 2.94369 3.45616 2.6731 3.8093 2.6731H7.53816C7.8913 2.6731 8.17753 2.94369 8.17753 3.27743C8.17753 3.61117 7.8913 3.88177 7.53816 3.88177Z" fill="black"/>
</svg>
