<svg width="40" height="40" viewBox="0 0 40 40" fill="none" xmlns="http://www.w3.org/2000/svg">
<g id="&#240;&#159;&#166;&#134; icon &#34;add photo alternate&#34;">
<path id="Vector" d="M30.0007 33.3334H6.66732V10.0001H21.6673V6.66675H6.66732C4.83398 6.66675 3.33398 8.16675 3.33398 10.0001V33.3334C3.33398 35.1667 4.83398 36.6667 6.66732 36.6667H30.0007C31.834 36.6667 33.334 35.1667 33.334 33.3334V18.3334H30.0007V33.3334ZM17.0173 28.0501L13.7507 24.1167L9.16732 30.0001H27.5007L21.6007 22.1501L17.0173 28.0501ZM33.334 6.66675V1.66675H30.0007V6.66675H25.0007C25.0173 6.68341 25.0007 10.0001 25.0007 10.0001H30.0007V14.9834C30.0173 15.0001 33.334 14.9834 33.334 14.9834V10.0001H38.334V6.66675H33.334Z" fill="white"/>
</g>
</svg>
