<svg width="50" height="17" viewBox="0 0 50 17" fill="none" xmlns="http://www.w3.org/2000/svg">
<rect width="50" height="17" rx="2" fill="black"/>
<path d="M4.23926 8.09766C4.23926 7.80794 4.2946 7.53613 4.40527 7.28223C4.51595 7.02832 4.66569 6.80697 4.85449 6.61816C5.04655 6.42611 5.26953 6.27474 5.52344 6.16406C5.77734 6.05339 6.04915 5.99805 6.33887 5.99805H9.55176V7.39941H6.33887C6.24121 7.39941 6.15007 7.41732 6.06543 7.45312C5.98079 7.48893 5.90592 7.53939 5.84082 7.60449C5.77897 7.66634 5.73014 7.73958 5.69434 7.82422C5.65853 7.90885 5.64062 8 5.64062 8.09766C5.64062 8.19531 5.65853 8.28809 5.69434 8.37598C5.73014 8.46061 5.77897 8.53548 5.84082 8.60059C5.90592 8.66243 5.98079 8.71126 6.06543 8.74707C6.15007 8.78288 6.24121 8.80078 6.33887 8.80078H7.74023C8.02995 8.80078 8.30176 8.85612 8.55566 8.9668C8.81283 9.07422 9.03581 9.22396 9.22461 9.41602C9.41667 9.60482 9.56641 9.8278 9.67383 10.085C9.78451 10.3389 9.83984 10.6107 9.83984 10.9004C9.83984 11.1901 9.78451 11.4619 9.67383 11.7158C9.56641 11.9697 9.41667 12.1927 9.22461 12.3848C9.03581 12.5736 8.81283 12.7233 8.55566 12.834C8.30176 12.9447 8.02995 13 7.74023 13H4.62988V11.5986H7.74023C7.83789 11.5986 7.92904 11.5807 8.01367 11.5449C8.09831 11.5091 8.17155 11.4603 8.2334 11.3984C8.2985 11.3333 8.34896 11.2585 8.38477 11.1738C8.42057 11.0892 8.43848 10.998 8.43848 10.9004C8.43848 10.8027 8.42057 10.7116 8.38477 10.627C8.34896 10.5423 8.2985 10.4691 8.2334 10.4072C8.17155 10.3421 8.09831 10.2917 8.01367 10.2559C7.92904 10.2201 7.83789 10.2021 7.74023 10.2021H6.33887C6.04915 10.2021 5.77734 10.1468 5.52344 10.0361C5.26953 9.92546 5.04655 9.77572 4.85449 9.58691C4.66569 9.39486 4.51595 9.17188 4.40527 8.91797C4.2946 8.66081 4.23926 8.38737 4.23926 8.09766ZM16.3535 12.2822C16.028 12.5622 15.6634 12.777 15.2598 12.9268C14.8561 13.0765 14.4378 13.1514 14.0049 13.1514C13.6729 13.1514 13.3522 13.1074 13.043 13.0195C12.737 12.9349 12.4489 12.8145 12.1787 12.6582C11.9118 12.4987 11.6676 12.3083 11.4463 12.0869C11.2249 11.8656 11.0345 11.6214 10.875 11.3545C10.7188 11.0843 10.5967 10.7962 10.5088 10.4902C10.4242 10.181 10.3818 9.86035 10.3818 9.52832C10.3818 9.19629 10.4242 8.87565 10.5088 8.56641C10.5967 8.25716 10.7188 7.96908 10.875 7.70215C11.0345 7.43197 11.2249 7.1862 11.4463 6.96484C11.6676 6.74349 11.9118 6.55469 12.1787 6.39844C12.4489 6.23893 12.737 6.11686 13.043 6.03223C13.3522 5.94434 13.6729 5.90039 14.0049 5.90039C14.4378 5.90039 14.8561 5.97526 15.2598 6.125C15.6634 6.27148 16.028 6.48633 16.3535 6.76953L15.6113 7.99023C15.4062 7.76888 15.1637 7.59961 14.8838 7.48242C14.6038 7.36198 14.3109 7.30176 14.0049 7.30176C13.6956 7.30176 13.4059 7.36035 13.1357 7.47754C12.8656 7.59473 12.6296 7.75423 12.4277 7.95605C12.2259 8.15462 12.0664 8.39062 11.9492 8.66406C11.832 8.93424 11.7734 9.22233 11.7734 9.52832C11.7734 9.83431 11.832 10.1224 11.9492 10.3926C12.0664 10.6595 12.2259 10.8939 12.4277 11.0957C12.6296 11.2975 12.8656 11.457 13.1357 11.5742C13.4059 11.6914 13.6956 11.75 14.0049 11.75C14.3109 11.75 14.6038 11.6914 14.8838 11.5742C15.1637 11.4538 15.4062 11.2829 15.6113 11.0615L16.3535 12.2822ZM21.9688 13H17.1689V5.99805H21.9688V7.39941H18.5703V8.80078H20.8701V10.2021H18.5703V11.5986H21.9688V13ZM28.5508 13H27.0518L24.3516 8.39062V13H22.9502V5.99805H24.4492L27.1494 10.6123V5.99805H28.5508V13ZM32.7939 13H31.3975V7.39941H29.293V5.99805H34.8936V7.39941H32.7939V13Z" fill="white"/>
<path d="M40.0002 12L37 8.93742L37.857 8.06258L40.0011 10.2488L40.0002 10.2497L45.143 5L46 5.87485L40.8572 11.1252L40.0008 11.9994L40.0002 12Z" fill="white"/>
</svg>
