<svg width="56" height="19" viewBox="0 0 56 19" fill="none" xmlns="http://www.w3.org/2000/svg">
<path fill-rule="evenodd" clip-rule="evenodd" d="M39.2479 0.773092C38.2682 0.40018 36.7332 0 34.8161 0C29.9301 0 26.4884 2.49661 26.459 6.07454C26.4315 8.71943 28.9161 10.1948 30.7917 11.0754C32.7165 11.9776 33.3635 12.553 33.3543 13.3586C33.3421 14.5925 31.8172 15.1562 30.396 15.1562C28.4169 15.1562 27.3654 14.8772 25.7415 14.1899L25.1043 13.8974L24.4103 18.018C25.5651 18.5317 27.7009 18.977 29.9184 19C35.1162 19 38.4906 16.5321 38.5289 12.7113C38.5475 10.6173 37.23 9.0238 34.3774 7.71014C32.649 6.85863 31.5905 6.29042 31.6017 5.42819C31.6017 4.66309 32.4976 3.84496 34.4334 3.84496C36.0504 3.81948 37.2217 4.17726 38.1344 4.55017L38.5775 4.76258L39.2479 0.773092Z" fill="white"/>
<path fill-rule="evenodd" clip-rule="evenodd" d="M52.0084 0.475H48.1975C47.017 0.475 46.1335 0.796628 45.6151 1.97279L38.2906 18.525H43.4694C43.4694 18.525 44.3161 16.2994 44.5076 15.8108C45.0735 15.8108 50.1045 15.8186 50.8237 15.8186C50.9713 16.4508 51.4237 18.525 51.4237 18.525H56L52.0084 0.475ZM45.9269 12.1165C46.3348 11.0759 47.8918 7.06754 47.8918 7.06754C47.8627 7.11561 48.2967 6.02183 48.5458 5.3437L48.879 6.90091C48.879 6.90091 49.8234 11.2123 50.0208 12.1163L45.9269 12.1165Z" fill="white"/>
<path fill-rule="evenodd" clip-rule="evenodd" d="M16.2735 18.525L19.4037 0.475H24.4103L21.2779 18.525H16.2735Z" fill="white"/>
<path fill-rule="evenodd" clip-rule="evenodd" d="M12.0567 0.475L7.27446 12.8034L6.76494 10.298C5.87468 7.40991 3.10093 4.28078 0 2.71423L4.37273 18.525L9.54079 18.5191L17.2308 0.475H12.0567Z" fill="white"/>
</svg>
