<svg xmlns="http://www.w3.org/2000/svg" xmlns:xlink="http://www.w3.org/1999/xlink" width="500" zoomAndPan="magnify" viewBox="0 0 375 374.999991" height="500" preserveAspectRatio="xMidYMid meet" version="1.0"><defs><g/><clipPath id="0ce30640b9"><path d="M 111.625 161.03125 L 263.375 161.03125 L 263.375 213.96875 L 111.625 213.96875 Z M 111.625 161.03125 " clip-rule="nonzero"/></clipPath></defs><g clip-path="url(#0ce30640b9)"><path fill="#000000" d="M 111.625 161.03125 L 263.382812 161.03125 L 263.382812 213.765625 L 111.625 213.765625 Z M 111.625 161.03125 " fill-opacity="1" fill-rule="nonzero"/></g><g fill="#ffffff" fill-opacity="1"><g transform="translate(129.2477, 199.717722)"><g><path d="M 10.980469 0.359375 C 16.019531 0.359375 20.296875 -2.609375 20.296875 -7.648438 C 20.296875 -17.640625 7.875 -15.164062 7.875 -19.84375 C 7.875 -21.375 9.046875 -22.09375 10.484375 -22.09375 C 12.015625 -22.09375 13.546875 -21.238281 14.894531 -19.753906 L 18.855469 -23.535156 C 16.875 -25.828125 13.859375 -27.359375 10.53125 -27.359375 C 6.253906 -27.359375 1.890625 -24.796875 1.890625 -19.394531 C 1.890625 -10.214844 14.355469 -12.421875 14.355469 -7.695312 C 14.355469 -6.210938 13.09375 -5.21875 11.023438 -5.21875 C 8.550781 -5.21875 6.613281 -6.613281 5.625 -8.730469 L 0.71875 -5.671875 C 2.476562 -2.296875 6.253906 0.359375 10.980469 0.359375 Z M 10.980469 0.359375 "/></g></g></g><g fill="#ffffff" fill-opacity="1"><g transform="translate(148.777678, 199.717722)"><g><path d="M 15.523438 0.359375 C 20.878906 0.359375 25.515625 -2.65625 27.808594 -7.066406 L 22.679688 -9.71875 C 21.375 -7.15625 18.71875 -5.445312 15.523438 -5.445312 C 10.980469 -5.445312 7.515625 -8.953125 7.515625 -13.5 C 7.515625 -18.046875 10.980469 -21.554688 15.523438 -21.554688 C 18.71875 -21.554688 21.375 -19.84375 22.679688 -17.28125 L 27.808594 -19.933594 C 25.515625 -24.34375 20.878906 -27.359375 15.523438 -27.359375 C 7.875 -27.359375 1.664062 -21.148438 1.664062 -13.5 C 1.664062 -5.851562 7.875 0.359375 15.523438 0.359375 Z M 15.523438 0.359375 "/></g></g></g><g fill="#ffffff" fill-opacity="1"><g transform="translate(175.957651, 199.717722)"><g><path d="M 19.125 -21.78125 L 19.125 -27 L 2.878906 -27 L 2.878906 0 L 19.125 0 L 19.125 -5.21875 L 8.820312 -5.21875 L 8.820312 -10.890625 L 17.640625 -10.890625 L 17.640625 -16.109375 L 8.820312 -16.109375 L 8.820312 -21.78125 Z M 19.125 -21.78125 "/></g></g></g><g fill="#ffffff" fill-opacity="1"><g transform="translate(195.127631, 199.717722)"><g><path d="M 22.050781 -27 L 22.050781 -9.136719 L 8.773438 -27 L 2.65625 -27 L 2.65625 0 L 8.59375 0 L 8.59375 -17.910156 L 21.824219 0 L 27.945312 0 L 27.945312 -27 Z M 22.050781 -27 "/></g></g></g><g fill="#ffffff" fill-opacity="1"><g transform="translate(223.972594, 199.717722)"><g><path d="M 19.304688 -27 L -0.226562 -27 L -0.226562 -21.734375 L 6.613281 -21.734375 L 6.613281 0 L 12.511719 0 L 12.511719 -21.734375 L 19.304688 -21.734375 Z M 19.304688 -27 "/></g></g></g></svg>