<svg width="26" height="26" viewBox="0 0 26 26" fill="none" xmlns="http://www.w3.org/2000/svg">
<path d="M7.58122 0C3.40063 0 0 3.40378 0 7.58545V18.4188C0 22.5994 3.40378 26 7.58545 26H18.4188C22.5994 26 26 22.5962 26 18.4146V7.58122C26 3.40063 22.5962 0 18.4146 0H7.58122ZM20.5833 4.33333C21.1813 4.33333 21.6667 4.81867 21.6667 5.41667C21.6667 6.01467 21.1813 6.5 20.5833 6.5C19.9853 6.5 19.5 6.01467 19.5 5.41667C19.5 4.81867 19.9853 4.33333 20.5833 4.33333ZM13 6.5C16.5848 6.5 19.5 9.41525 19.5 13C19.5 16.5848 16.5848 19.5 13 19.5C9.41525 19.5 6.5 16.5848 6.5 13C6.5 9.41525 9.41525 6.5 13 6.5ZM13 8.66667C11.8507 8.66667 10.7485 9.12321 9.93587 9.93587C9.12321 10.7485 8.66667 11.8507 8.66667 13C8.66667 14.1493 9.12321 15.2515 9.93587 16.0641C10.7485 16.8768 11.8507 17.3333 13 17.3333C14.1493 17.3333 15.2515 16.8768 16.0641 16.0641C16.8768 15.2515 17.3333 14.1493 17.3333 13C17.3333 11.8507 16.8768 10.7485 16.0641 9.93587C15.2515 9.12321 14.1493 8.66667 13 8.66667Z" fill="white"/>
</svg>
