<svg width="26" height="26" viewBox="0 0 26 26" fill="none" xmlns="http://www.w3.org/2000/svg">
<path fill-rule="evenodd" clip-rule="evenodd" d="M7 0C3.13401 0 0 3.13401 0 7V19C0 22.866 3.13401 26 7 26H19C22.866 26 26 22.866 26 19V7C26 3.13401 22.866 0 19 0H7ZM20.1491 3.48931C20.3705 3.39979 20.6221 3.32116 20.892 3.30924C21.162 3.29733 21.4505 3.3515 21.7453 3.52824C22.0402 3.70502 22.278 4.03353 22.3682 4.37664C22.4585 4.71975 22.437 5.06744 22.3552 5.44079C22.3554 5.44012 22.3584 5.43018 22.3583 5.43085C22.2772 5.84704 19.5669 19.7612 19.5003 20.113C19.5002 20.1136 19.5002 20.1137 19.5002 20.1142C19.5002 20.1147 19.5002 20.1153 19.5001 20.1158C19.4296 20.4834 19.2643 20.7759 18.999 21.0543C18.7334 21.3328 18.3199 21.5944 17.7985 21.5944C17.3117 21.5944 16.9724 21.4265 16.7594 21.2665C16.5486 21.1081 16.3832 20.8965 16.1916 20.7152L15.849 20.3911C14.4858 19.1016 12.3673 19.0544 10.9481 20.2821C10.9362 20.2907 10.925 20.2999 10.9135 20.309C10.8443 20.364 10.5655 20.5627 10.1467 20.5627C10.0327 20.5627 9.90501 20.5371 9.77849 20.4962C9.76781 20.4939 9.75893 20.4922 9.75093 20.4908C9.73516 20.4878 9.72287 20.4855 9.70712 20.48C9.70038 20.4776 9.69418 20.4741 9.68797 20.4706C9.68259 20.4675 9.67719 20.4645 9.67143 20.4622L9.66818 20.4605C9.61433 20.4387 9.56105 20.415 9.51245 20.3843C9.39088 20.3074 9.29055 20.2092 9.20424 20.0972C9.03162 19.8731 8.89904 19.5908 8.75976 19.1401C8.56377 18.5064 7.76556 16.0623 7.51756 15.3029C7.48747 15.2107 7.41844 15.1365 7.32874 15.0998C7.28653 15.0825 7.23894 15.063 7.1866 15.0416C6.36454 14.7053 4.37138 13.8897 3.66612 13.602C3.44244 13.5107 3.18131 13.3902 2.93452 13.1461C2.68773 12.9021 2.49167 12.4934 2.49167 12.082C2.49167 11.5718 2.7926 11.1139 3.07565 10.8929C3.31802 10.7037 3.54838 10.6141 3.65758 10.5716C3.67591 10.5644 3.69083 10.5586 3.70181 10.5539C4.38686 10.2592 5.29179 9.86968 6.32571 9.42468C8.35941 8.54938 10.8921 7.45929 13.2321 6.45303C14.9969 5.6941 16.6513 4.98382 17.9007 4.44801L17.9323 4.43449C19.1624 3.90695 19.9434 3.57204 20.1491 3.48931ZM20.7354 5.06279C20.7343 5.05503 20.7275 5.04861 20.7202 5.05162C20.5674 5.11516 19.734 5.46937 18.5561 5.97448C17.3077 6.50986 15.652 7.22068 13.8875 7.9795C11.6446 8.94403 9.22494 9.98568 7.23728 10.8414C6.09749 11.3321 5.09974 11.7616 4.35879 12.0804C4.35458 12.0822 4.35414 12.088 4.35839 12.0897C5.14753 12.4118 7.26645 13.279 7.98497 13.5731C8.10937 13.624 8.24911 13.615 8.3653 13.5474C10.7862 12.139 15.7802 9.22681 16.9404 8.48724C16.9517 8.48006 16.9642 8.47188 16.9777 8.46307C17.0733 8.40048 17.2183 8.30555 17.3297 8.30555C17.4709 8.30555 17.5341 8.39355 17.5341 8.51482C17.5341 8.60535 17.4787 8.69684 17.2146 8.95929C16.9235 9.2504 12.6033 13.7213 11.6335 14.725C11.5056 14.8574 11.4177 15.0181 11.3731 15.1967L11.2992 15.4928C11.0738 16.3953 12.1426 17.0527 12.8464 16.4444C13.2165 16.1246 13.7686 16.137 14.124 16.4731L17.6396 19.7987C17.6503 19.8105 17.6633 19.8198 17.6778 19.8263C17.6935 19.8335 17.7159 19.844 17.7388 19.8556C17.7775 19.8753 17.826 19.8655 17.847 19.8275C17.8629 19.799 17.8726 19.7814 17.8683 19.8052C17.9695 19.2699 20.6889 5.31517 20.7294 5.10734C20.7306 5.10088 20.7304 5.10175 20.7314 5.09526L20.7331 5.08553C20.7364 5.07012 20.7359 5.0666 20.7354 5.06279Z" fill="white"/>
</svg>
