<svg width="26" height="28" viewBox="0 0 26 28" fill="none" xmlns="http://www.w3.org/2000/svg">
<path d="M25.2464 6.20625C24.7631 4.50405 23.8069 3.15653 22.4041 2.20334C20.6337 0.999321 18.5973 0.572313 16.8387 0.313308C14.4053 -0.0448657 12.2011 -0.0950334 10.1021 0.158138C8.13315 0.396143 6.6511 0.776483 5.29787 1.39016C2.64697 2.59185 1.05619 4.53789 0.570442 7.17227C0.33407 8.45096 0.175702 9.60715 0.083517 10.7097C-0.129217 13.2589 0.0634255 15.5153 0.673264 17.606C1.26656 19.6442 2.30423 21.1014 3.84537 22.0581C4.23893 22.3019 4.74004 22.4781 5.22696 22.6484C5.47042 22.7336 5.70443 22.8176 5.90889 22.9062V27.0246C5.90889 27.5637 6.35091 28 6.89693 28C7.15457 28 7.40158 27.9008 7.58595 27.7235L11.4353 24.0274C11.6031 23.8384 11.6031 23.8384 11.7756 23.8349C13.091 23.8093 14.4348 23.7591 15.7703 23.6879C17.3883 23.6004 19.2627 23.4464 21.0284 22.7196C22.644 22.0534 23.8235 20.9964 24.5314 19.5788C25.2701 18.0995 25.7097 16.4964 25.874 14.6799C26.1624 11.4855 25.9567 8.71347 25.2464 6.20625ZM18.5441 18.3631C18.1577 18.9873 17.5786 19.419 16.8978 19.699C16.4002 19.9043 15.892 19.8612 15.4016 19.6558C11.284 17.9361 8.05633 15.2248 5.92189 11.3292C5.48224 10.5265 5.17614 9.65265 4.82513 8.80447C4.75304 8.62947 4.75895 8.42529 4.72704 8.23512C4.75776 6.86427 5.82262 6.09308 6.89811 5.85975C7.30939 5.76991 7.67341 5.91341 7.97833 6.20159C8.82217 6.99727 9.48992 7.91895 9.99221 8.95264C10.212 9.40648 10.1128 9.80782 9.73811 10.145C9.66129 10.215 9.57974 10.2803 9.49583 10.3422C8.64135 10.9768 8.51607 11.4564 8.97109 12.4119C9.74638 14.0371 11.0334 15.1279 12.6987 15.8046C13.1371 15.9831 13.5508 15.8944 13.8864 15.5433C13.9313 15.4966 13.9822 15.4511 14.0153 15.3974C14.6724 14.3159 15.6238 14.4232 16.5031 15.0404C17.081 15.4453 17.6412 15.8723 18.2132 16.2853C19.0807 16.9165 19.0736 17.5091 18.5441 18.3631ZM13.604 7.16644C13.383 7.16644 13.1608 7.18394 12.9433 7.22011C12.5746 7.28194 12.2271 7.03577 12.1656 6.67176C12.1042 6.30892 12.3524 5.96475 12.7211 5.90408C13.0107 5.85741 13.3085 5.83291 13.604 5.83291C16.5291 5.83291 18.9093 8.18262 18.9093 11.0702C18.9093 11.363 18.8845 11.657 18.8361 11.9429C18.7805 12.2684 18.4945 12.4994 18.1707 12.4994C18.134 12.4994 18.0962 12.497 18.0584 12.49C17.6908 12.4282 17.4426 12.0852 17.5041 11.7224C17.5407 11.51 17.5585 11.2907 17.5585 11.0713C17.5585 8.91764 15.7845 7.16644 13.604 7.16644ZM16.5456 11.4995C16.5456 11.867 16.2431 12.1657 15.8708 12.1657C15.4985 12.1657 15.1959 11.867 15.1959 11.4995C15.1959 10.397 14.2871 9.49981 13.1702 9.49981C12.7979 9.49981 12.4954 9.20114 12.4954 8.83364C12.4954 8.46613 12.7979 8.16746 13.1702 8.16746C15.0305 8.16629 16.5456 9.66199 16.5456 11.4995ZM21.091 12.3127C21.0201 12.623 20.7424 12.8319 20.4327 12.8319C20.3831 12.8319 20.3323 12.826 20.2826 12.8155C19.9186 12.7339 19.6905 12.3769 19.7733 12.0187C19.8714 11.5929 19.921 11.153 19.921 10.712C19.921 7.47094 17.25 4.83306 13.9656 4.83306C13.5177 4.83306 13.0733 4.88206 12.6419 4.9789C12.2803 5.06173 11.9163 4.83539 11.8347 4.47605C11.752 4.11671 11.9801 3.75971 12.3441 3.6792C12.8736 3.55904 13.4196 3.49953 13.968 3.49953C17.9958 3.49953 21.273 6.73476 21.273 10.7108C21.273 11.2522 21.2116 11.7912 21.091 12.3127Z" fill="white"/>
</svg>
