<svg width="18" height="15" viewBox="0 0 18 15" fill="none" xmlns="http://www.w3.org/2000/svg">
<path d="M8.57142 14.9933C8.01857 14.5169 7.39371 14.0213 6.73287 13.4941H6.7243C4.39716 11.645 1.75973 9.55276 0.594875 7.0457C0.212178 6.24752 0.00936976 5.37914 9.76488e-06 4.49866C-0.00254452 3.2905 0.496107 2.13234 1.38328 1.28592C2.27046 0.439498 3.47126 -0.0237258 4.7143 0.000936709C5.72627 0.00248592 6.71645 0.286692 7.56685 0.819688C7.94057 1.05537 8.27862 1.34047 8.57142 1.66676C8.86585 1.34175 9.20408 1.05682 9.57685 0.819688C10.427 0.286584 11.4169 0.00236099 12.4286 0.000936709C13.6716 -0.0237258 14.8724 0.439498 15.7596 1.28592C16.6468 2.13234 17.1454 3.2905 17.1428 4.49866C17.1341 5.38055 16.9313 6.25044 16.548 7.04986C15.3831 9.55693 12.7466 11.6484 10.4194 13.4941L10.4109 13.5008C9.74914 14.0247 9.12514 14.5202 8.57228 15L8.57142 14.9933ZM4.7143 1.66676C3.91588 1.65705 3.1458 1.95398 2.57145 2.49301C2.01807 3.02121 1.70878 3.74491 1.71423 4.49866C1.72401 5.14041 1.87359 5.77289 2.15316 6.35438C2.70303 7.43608 3.44497 8.41501 4.34487 9.24625C5.1943 10.0792 6.17144 10.8854 7.01657 11.5634C7.25057 11.7508 7.48885 11.9399 7.72714 12.129L7.87714 12.2481C8.10599 12.4296 8.34257 12.6179 8.57142 12.8028L8.58257 12.7928L8.58771 12.7886H8.59285L8.60057 12.7828H8.60485H8.60914L8.62457 12.7703L8.65971 12.7428L8.66571 12.7378L8.67514 12.7312H8.68028L8.68799 12.7245L9.25714 12.2706L9.40628 12.1514C9.64714 11.9607 9.88542 11.7716 10.1194 11.5842C10.9646 10.9062 11.9426 10.1008 12.792 9.26374C13.6921 8.433 14.434 7.45424 14.9837 6.37271C15.2684 5.78617 15.4201 5.14708 15.4286 4.49866C15.4322 3.74723 15.123 3.02631 14.5714 2.49967C13.9982 1.95821 13.2279 1.65883 12.4286 1.66676C11.4531 1.6587 10.5206 2.05603 9.86571 2.75871L8.57142 4.20797L7.27714 2.75871C6.62236 2.05603 5.6898 1.6587 4.7143 1.66676Z" fill="black"/>
</svg>
