<svg width="26" height="26" viewBox="0 0 26 26" fill="none" xmlns="http://www.w3.org/2000/svg">
<path d="M13 25.9998C11.0346 26.0054 9.09385 25.5607 7.32688 24.6998C6.68019 24.3852 6.06059 24.0178 5.47439 23.6013L5.29629 23.4713C3.68407 22.2813 2.36594 20.7377 1.44312 18.9591C0.488587 17.1181 -0.00648776 15.0737 6.4195e-05 12.9999C6.4195e-05 5.82025 5.82038 0 13 0C20.1796 0 25.9999 5.82025 25.9999 12.9999C26.0064 15.0726 25.5119 17.1162 24.5582 18.9565C23.6367 20.7341 22.3204 22.2772 20.7103 23.4674C20.1029 23.912 19.4583 24.3035 18.7837 24.6374L18.6797 24.6894C16.9116 25.5548 14.9686 26.0032 13 25.9998ZM13 19.4999C11.052 19.4961 9.26602 20.584 8.37597 22.3169C11.2898 23.7602 14.7103 23.7602 17.6241 22.3169V22.3104C16.733 20.5795 14.9469 19.4939 13 19.4999ZM13 16.8999C15.8159 16.9035 18.4124 18.421 19.7977 20.8726L19.8172 20.8557L19.8354 20.8401L19.8133 20.8596L19.8003 20.87C23.088 18.0297 24.2635 13.4449 22.7481 9.37307C21.2329 5.30121 17.346 2.6004 13.0013 2.6004C8.65665 2.6004 4.76978 5.30121 3.25446 9.37307C1.73914 13.4449 2.91471 18.0297 6.20238 20.87C7.58851 18.4196 10.1847 16.9033 13 16.8999ZM13 15.5999C10.1282 15.5999 7.80007 13.2717 7.80007 10.3999C7.80007 7.52806 10.1282 5.19996 13 5.19996C15.8718 5.19996 18.2 7.52806 18.2 10.3999C18.2 11.7791 17.6522 13.1017 16.6769 14.0768C15.7018 15.0521 14.3792 15.5999 13 15.5999ZM13 7.79994C11.5641 7.79994 10.4001 8.96399 10.4001 10.3999C10.4001 11.8359 11.5641 12.9999 13 12.9999C14.436 12.9999 15.6 11.8359 15.6 10.3999C15.6 8.96399 14.436 7.79994 13 7.79994Z" fill="white"/>
</svg>
